<svg version="1.1" preserveAspectRatio="xMinYMin slice" xmlns="http://www.w3.org/2000/svg" width="900" height="520" viewBox="0 0 900 520"><!--{"isLandscape":true,"mapWidth":30,"mapHeight":20,"palette":[]}--><path d="M330 26 L315 52 L345 52 Z" fill="#249AF3" rel="80"></path><path d="M330 26 L345 52 L360 26 Z" fill="#249AF3" rel="81"></path><path d="M360 26 L345 52 L375 52 Z" fill="#249AF3" rel="82"></path><path d="M360 26 L375 52 L390 26 Z" fill="#249AF3" rel="83"></path><path d="M390 26 L375 52 L405 52 Z" fill="#249AF3" rel="84"></path><path d="M390 26 L405 52 L420 26 Z" fill="#249AF3" rel="85"></path><path d="M420 26 L405 52 L435 52 Z" fill="#249AF3" rel="86"></path><path d="M420 26 L435 52 L450 26 Z" fill="#249AF3" rel="87"></path><path d="M450 26 L435 52 L465 52 Z" fill="#249AF3" rel="88"></path><path d="M450 26 L465 52 L480 26 Z" fill="#249AF3" rel="89"></path><path d="M480 26 L465 52 L495 52 Z" fill="#249AF3" rel="90"></path><path d="M480 26 L495 52 L510 26 Z" fill="#249AF3" rel="91"></path><path d="M510 26 L495 52 L525 52 Z" fill="#249AF3" rel="92"></path><path d="M510 26 L525 52 L540 26 Z" fill="#249AF3" rel="93"></path><path d="M540 26 L525 52 L555 52 Z" fill="#249AF3" rel="94"></path><path d="M540 26 L555 52 L570 26 Z" fill="#249AF3" rel="95"></path><path d="M570 26 L555 52 L585 52 Z" fill="#249AF3" rel="96"></path><path d="M315 52 L300 78 L330 78 Z" fill="#249AF3" rel="138"></path><path d="M315 52 L330 78 L345 52 Z" fill="#249AF3" rel="139"></path><path d="M345 52 L330 78 L360 78 Z" fill="#11aaff" rel="140"></path><path d="M345 52 L360 78 L375 52 Z" fill="#11aaff" rel="141"></path><path d="M375 52 L360 78 L390 78 Z" fill="#11aaff" rel="142"></path><path d="M375 52 L390 78 L405 52 Z" fill="#11aaff" rel="143"></path><path d="M405 52 L390 78 L420 78 Z" fill="#11aaff" rel="144"></path><path d="M405 52 L420 78 L435 52 Z" fill="#11aaff" rel="145"></path><path d="M435 52 L420 78 L450 78 Z" fill="#11aaff" rel="146"></path><path d="M435 52 L450 78 L465 52 Z" fill="#11aaff" rel="147"></path><path d="M465 52 L450 78 L480 78 Z" fill="#11aaff" rel="148"></path><path d="M465 52 L480 78 L495 52 Z" fill="#11aaff" rel="149"></path><path d="M495 52 L480 78 L510 78 Z" fill="#11aaff" rel="150"></path><path d="M495 52 L510 78 L525 52 Z" fill="#11aaff" rel="151"></path><path d="M525 52 L510 78 L540 78 Z" fill="#11aaff" rel="152"></path><path d="M525 52 L540 78 L555 52 Z" fill="#11aaff" rel="153"></path><path d="M555 52 L540 78 L570 78 Z" fill="#11aaff" rel="154"></path><path d="M555 52 L570 78 L585 52 Z" fill="#249AF3" rel="155"></path><path d="M585 52 L570 78 L600 78 Z" fill="#249AF3" rel="156"></path><path d="M300 78 L285 104 L315 104 Z" fill="#249AF3" rel="196"></path><path d="M300 78 L315 104 L330 78 Z" fill="#249AF3" rel="197"></path><path d="M330 78 L315 104 L345 104 Z" fill="#11aaff" rel="198"></path><path d="M330 78 L345 104 L360 78 Z" fill="#11aaff" rel="199"></path><path d="M360 78 L345 104 L375 104 Z" fill="#249AF3" rel="200"></path><path d="M360 78 L375 104 L390 78 Z" fill="#249AF3" rel="201"></path><path d="M390 78 L375 104 L405 104 Z" fill="#249AF3" rel="202"></path><path d="M390 78 L405 104 L420 78 Z" fill="#249AF3" rel="203"></path><path d="M420 78 L405 104 L435 104 Z" fill="#249AF3" rel="204"></path><path d="M420 78 L435 104 L450 78 Z" fill="#249AF3" rel="205"></path><path d="M450 78 L435 104 L465 104 Z" fill="#249AF3" rel="206"></path><path d="M450 78 L465 104 L480 78 Z" fill="#249AF3" rel="207"></path><path d="M480 78 L465 104 L495 104 Z" fill="#249AF3" rel="208"></path><path d="M480 78 L495 104 L510 78 Z" fill="#249AF3" rel="209"></path><path d="M510 78 L495 104 L525 104 Z" fill="#249AF3" rel="210"></path><path d="M510 78 L525 104 L540 78 Z" fill="#249AF3" rel="211"></path><path d="M540 78 L525 104 L555 104 Z" fill="#249AF3" rel="212"></path><path d="M540 78 L555 104 L570 78 Z" fill="#11aaff" rel="213"></path><path d="M570 78 L555 104 L585 104 Z" fill="#11aaff" rel="214"></path><path d="M570 78 L585 104 L600 78 Z" fill="#249AF3" rel="215"></path><path d="M600 78 L585 104 L615 104 Z" fill="#249AF3" rel="216"></path><path d="M285 104 L270 130 L300 130 Z" fill="#249AF3" rel="254"></path><path d="M285 104 L300 130 L315 104 Z" fill="#249AF3" rel="255"></path><path d="M315 104 L300 130 L330 130 Z" fill="#11aaff" rel="256"></path><path d="M315 104 L330 130 L345 104 Z" fill="#11aaff" rel="257"></path><path d="M345 104 L330 130 L360 130 Z" fill="#249AF3" rel="258"></path><path d="M345 104 L360 130 L375 104 Z" fill="#249AF3" rel="259"></path><path d="M525 104 L540 130 L555 104 Z" fill="#249AF3" rel="271"></path><path d="M555 104 L540 130 L570 130 Z" fill="#249AF3" rel="272"></path><path d="M555 104 L570 130 L585 104 Z" fill="#11aaff" rel="273"></path><path d="M585 104 L570 130 L600 130 Z" fill="#11aaff" rel="274"></path><path d="M585 104 L600 130 L615 104 Z" fill="#249AF3" rel="275"></path><path d="M615 104 L600 130 L630 130 Z" fill="#249AF3" rel="276"></path><path d="M270 130 L255 156 L285 156 Z" fill="#249AF3" rel="312"></path><path d="M270 130 L285 156 L300 130 Z" fill="#249AF3" rel="313"></path><path d="M300 130 L285 156 L315 156 Z" fill="#11aaff" rel="314"></path><path d="M300 130 L315 156 L330 130 Z" fill="#11aaff" rel="315"></path><path d="M330 130 L315 156 L345 156 Z" fill="#249AF3" rel="316"></path><path d="M330 130 L345 156 L360 130 Z" fill="#249AF3" rel="317"></path><path d="M420 130 L405 156 L435 156 Z" fill="#249AF3" rel="322"></path><path d="M420 130 L435 156 L450 130 Z" fill="#249AF3" rel="323"></path><path d="M450 130 L435 156 L465 156 Z" fill="#249AF3" rel="324"></path><path d="M450 130 L465 156 L480 130 Z" fill="#249AF3" rel="325"></path><path d="M480 130 L465 156 L495 156 Z" fill="#249AF3" rel="326"></path><path d="M540 130 L555 156 L570 130 Z" fill="#249AF3" rel="331"></path><path d="M570 130 L555 156 L585 156 Z" fill="#249AF3" rel="332"></path><path d="M570 130 L585 156 L600 130 Z" fill="#11aaff" rel="333"></path><path d="M600 130 L585 156 L615 156 Z" fill="#11aaff" rel="334"></path><path d="M600 130 L615 156 L630 130 Z" fill="#249AF3" rel="335"></path><path d="M630 130 L615 156 L645 156 Z" fill="#249AF3" rel="336"></path><path d="M255 156 L240 182 L270 182 Z" fill="#249AF3" rel="370"></path><path d="M255 156 L270 182 L285 156 Z" fill="#249AF3" rel="371"></path><path d="M285 156 L270 182 L300 182 Z" fill="#11aaff" rel="372"></path><path d="M285 156 L300 182 L315 156 Z" fill="#11aaff" rel="373"></path><path d="M315 156 L300 182 L330 182 Z" fill="#249AF3" rel="374"></path><path d="M315 156 L330 182 L345 156 Z" fill="#249AF3" rel="375"></path><path d="M405 156 L390 182 L420 182 Z" fill="#249AF3" rel="380"></path><path d="M405 156 L420 182 L435 156 Z" fill="#249AF3" rel="381"></path><path d="M435 156 L420 182 L450 182 Z" fill="#249AF3" rel="382"></path><path d="M435 156 L450 182 L465 156 Z" fill="#249AF3" rel="383"></path><path d="M465 156 L450 182 L480 182 Z" fill="#249AF3" rel="384"></path><path d="M465 156 L480 182 L495 156 Z" fill="#249AF3" rel="385"></path><path d="M495 156 L480 182 L510 182 Z" fill="#249AF3" rel="386"></path><path d="M555 156 L570 182 L585 156 Z" fill="#249AF3" rel="391"></path><path d="M585 156 L570 182 L600 182 Z" fill="#249AF3" rel="392"></path><path d="M585 156 L600 182 L615 156 Z" fill="#11aaff" rel="393"></path><path d="M615 156 L600 182 L630 182 Z" fill="#11aaff" rel="394"></path><path d="M615 156 L630 182 L645 156 Z" fill="#249AF3" rel="395"></path><path d="M645 156 L630 182 L660 182 Z" fill="#249AF3" rel="396"></path><path d="M240 182 L225 208 L255 208 Z" fill="#249AF3" rel="428"></path><path d="M240 182 L255 208 L270 182 Z" fill="#249AF3" rel="429"></path><path d="M270 182 L255 208 L285 208 Z" fill="#11aaff" rel="430"></path><path d="M270 182 L285 208 L300 182 Z" fill="#11aaff" rel="431"></path><path d="M300 182 L285 208 L315 208 Z" fill="#249AF3" rel="432"></path><path d="M300 182 L315 208 L330 182 Z" fill="#249AF3" rel="433"></path><path d="M390 182 L405 208 L420 182 Z" fill="#249AF3" rel="439"></path><path d="M420 182 L405 208 L435 208 Z" fill="#249AF3" rel="440"></path><path d="M420 182 L435 208 L450 182 Z" fill="#249AF3" rel="441"></path><path d="M450 182 L435 208 L465 208 Z" fill="#249AF3" rel="442"></path><path d="M450 182 L465 208 L480 182 Z" fill="#249AF3" rel="443"></path><path d="M480 182 L465 208 L495 208 Z" fill="#249AF3" rel="444"></path><path d="M480 182 L495 208 L510 182 Z" fill="#249AF3" rel="445"></path><path d="M570 182 L585 208 L600 182 Z" fill="#249AF3" rel="451"></path><path d="M600 182 L585 208 L615 208 Z" fill="#249AF3" rel="452"></path><path d="M600 182 L615 208 L630 182 Z" fill="#11aaff" rel="453"></path><path d="M630 182 L615 208 L645 208 Z" fill="#11aaff" rel="454"></path><path d="M630 182 L645 208 L660 182 Z" fill="#249AF3" rel="455"></path><path d="M660 182 L645 208 L675 208 Z" fill="#249AF3" rel="456"></path><path d="M225 208 L210 234 L240 234 Z" fill="#249AF3" rel="486"></path><path d="M225 208 L240 234 L255 208 Z" fill="#249AF3" rel="487"></path><path d="M255 208 L240 234 L270 234 Z" fill="#11aaff" rel="488"></path><path d="M255 208 L270 234 L285 208 Z" fill="#11aaff" rel="489"></path><path d="M285 208 L270 234 L300 234 Z" fill="#249AF3" rel="490"></path><path d="M285 208 L300 234 L315 208 Z" fill="#249AF3" rel="491"></path><path d="M405 208 L420 234 L435 208 Z" fill="#249AF3" rel="499"></path><path d="M435 208 L420 234 L450 234 Z" fill="#11AAFF" rel="500"></path><path d="M435 208 L450 234 L465 208 Z" fill="#11AAFF" rel="501"></path><path d="M465 208 L450 234 L480 234 Z" fill="#11AAFF" rel="502"></path><path d="M465 208 L480 234 L495 208 Z" fill="#249AF3" rel="503"></path><path d="M585 208 L600 234 L615 208 Z" fill="#249AF3" rel="511"></path><path d="M615 208 L600 234 L630 234 Z" fill="#249AF3" rel="512"></path><path d="M615 208 L630 234 L645 208 Z" fill="#11aaff" rel="513"></path><path d="M645 208 L630 234 L660 234 Z" fill="#11aaff" rel="514"></path><path d="M645 208 L660 234 L675 208 Z" fill="#249AF3" rel="515"></path><path d="M675 208 L660 234 L690 234 Z" fill="#249AF3" rel="516"></path><path d="M210 234 L195 260 L225 260 Z" fill="#249AF3" rel="544"></path><path d="M210 234 L225 260 L240 234 Z" fill="#249AF3" rel="545"></path><path d="M240 234 L225 260 L255 260 Z" fill="#11aaff" rel="546"></path><path d="M240 234 L255 260 L270 234 Z" fill="#11aaff" rel="547"></path><path d="M270 234 L255 260 L285 260 Z" fill="#249AF3" rel="548"></path><path d="M270 234 L285 260 L300 234 Z" fill="#249AF3" rel="549"></path><path d="M420 234 L435 260 L450 234 Z" fill="#11AAFF" rel="559"></path><path d="M450 234 L435 260 L465 260 Z" fill="#11AAFF" rel="560"></path><path d="M450 234 L465 260 L480 234 Z" fill="#11AAFF" rel="561"></path><path d="M600 234 L615 260 L630 234 Z" fill="#249AF3" rel="571"></path><path d="M630 234 L615 260 L645 260 Z" fill="#249AF3" rel="572"></path><path d="M630 234 L645 260 L660 234 Z" fill="#11aaff" rel="573"></path><path d="M660 234 L645 260 L675 260 Z" fill="#11aaff" rel="574"></path><path d="M660 234 L675 260 L690 234 Z" fill="#249AF3" rel="575"></path><path d="M690 234 L675 260 L705 260 Z" fill="#249AF3" rel="576"></path><path d="M195 260 L210 286 L225 260 Z" fill="#249AF3" rel="603"></path><path d="M225 260 L210 286 L240 286 Z" fill="#249AF3" rel="604"></path><path d="M225 260 L240 286 L255 260 Z" fill="#11aaff" rel="605"></path><path d="M255 260 L240 286 L270 286 Z" fill="#11aaff" rel="606"></path><path d="M255 260 L270 286 L285 260 Z" fill="#249AF3" rel="607"></path><path d="M285 260 L270 286 L300 286 Z" fill="#249AF3" rel="608"></path><path d="M435 260 L420 286 L450 286 Z" fill="#11AAFF" rel="618"></path><path d="M435 260 L450 286 L465 260 Z" fill="#11AAFF" rel="619"></path><path d="M465 260 L450 286 L480 286 Z" fill="#11AAFF" rel="620"></path><path d="M615 260 L600 286 L630 286 Z" fill="#249AF3" rel="630"></path><path d="M615 260 L630 286 L645 260 Z" fill="#249AF3" rel="631"></path><path d="M645 260 L630 286 L660 286 Z" fill="#11aaff" rel="632"></path><path d="M645 260 L660 286 L675 260 Z" fill="#11aaff" rel="633"></path><path d="M675 260 L660 286 L690 286 Z" fill="#249AF3" rel="634"></path><path d="M675 260 L690 286 L705 260 Z" fill="#249AF3" rel="635"></path><path d="M210 286 L225 312 L240 286 Z" fill="#249AF3" rel="663"></path><path d="M240 286 L225 312 L255 312 Z" fill="#249AF3" rel="664"></path><path d="M240 286 L255 312 L270 286 Z" fill="#11aaff" rel="665"></path><path d="M270 286 L255 312 L285 312 Z" fill="#11aaff" rel="666"></path><path d="M270 286 L285 312 L300 286 Z" fill="#249AF3" rel="667"></path><path d="M300 286 L285 312 L315 312 Z" fill="#249AF3" rel="668"></path><path d="M420 286 L435 312 L450 286 Z" fill="#11AAFF" rel="677"></path><path d="M450 286 L435 312 L465 312 Z" fill="#11AAFF" rel="678"></path><path d="M450 286 L465 312 L480 286 Z" fill="#11AAFF" rel="679"></path><path d="M600 286 L585 312 L615 312 Z" fill="#249AF3" rel="688"></path><path d="M600 286 L615 312 L630 286 Z" fill="#249AF3" rel="689"></path><path d="M630 286 L615 312 L645 312 Z" fill="#11aaff" rel="690"></path><path d="M630 286 L645 312 L660 286 Z" fill="#11aaff" rel="691"></path><path d="M660 286 L645 312 L675 312 Z" fill="#249AF3" rel="692"></path><path d="M660 286 L675 312 L690 286 Z" fill="#249AF3" rel="693"></path><path d="M225 312 L240 338 L255 312 Z" fill="#249AF3" rel="723"></path><path d="M255 312 L240 338 L270 338 Z" fill="#249AF3" rel="724"></path><path d="M255 312 L270 338 L285 312 Z" fill="#11aaff" rel="725"></path><path d="M285 312 L270 338 L300 338 Z" fill="#11aaff" rel="726"></path><path d="M285 312 L300 338 L315 312 Z" fill="#249AF3" rel="727"></path><path d="M315 312 L300 338 L330 338 Z" fill="#249AF3" rel="728"></path><path d="M435 312 L420 338 L450 338 Z" fill="#11AAFF" rel="736"></path><path d="M435 312 L450 338 L465 312 Z" fill="#11AAFF" rel="737"></path><path d="M465 312 L450 338 L480 338 Z" fill="#11AAFF" rel="738"></path><path d="M585 312 L570 338 L600 338 Z" fill="#249AF3" rel="746"></path><path d="M585 312 L600 338 L615 312 Z" fill="#249AF3" rel="747"></path><path d="M615 312 L600 338 L630 338 Z" fill="#11aaff" rel="748"></path><path d="M615 312 L630 338 L645 312 Z" fill="#11aaff" rel="749"></path><path d="M645 312 L630 338 L660 338 Z" fill="#249AF3" rel="750"></path><path d="M645 312 L660 338 L675 312 Z" fill="#249AF3" rel="751"></path><path d="M240 338 L255 364 L270 338 Z" fill="#249AF3" rel="783"></path><path d="M270 338 L255 364 L285 364 Z" fill="#249AF3" rel="784"></path><path d="M270 338 L285 364 L300 338 Z" fill="#11aaff" rel="785"></path><path d="M300 338 L285 364 L315 364 Z" fill="#11aaff" rel="786"></path><path d="M300 338 L315 364 L330 338 Z" fill="#249AF3" rel="787"></path><path d="M330 338 L315 364 L345 364 Z" fill="#249AF3" rel="788"></path><path d="M420 338 L435 364 L450 338 Z" fill="#11AAFF" rel="795"></path><path d="M450 338 L435 364 L465 364 Z" fill="#11AAFF" rel="796"></path><path d="M450 338 L465 364 L480 338 Z" fill="#11AAFF" rel="797"></path><path d="M570 338 L555 364 L585 364 Z" fill="#249AF3" rel="804"></path><path d="M570 338 L585 364 L600 338 Z" fill="#249AF3" rel="805"></path><path d="M600 338 L585 364 L615 364 Z" fill="#11aaff" rel="806"></path><path d="M600 338 L615 364 L630 338 Z" fill="#11aaff" rel="807"></path><path d="M630 338 L615 364 L645 364 Z" fill="#249AF3" rel="808"></path><path d="M630 338 L645 364 L660 338 Z" fill="#249AF3" rel="809"></path><path d="M255 364 L270 390 L285 364 Z" fill="#249AF3" rel="843"></path><path d="M285 364 L270 390 L300 390 Z" fill="#249AF3" rel="844"></path><path d="M285 364 L300 390 L315 364 Z" fill="#11aaff" rel="845"></path><path d="M315 364 L300 390 L330 390 Z" fill="#11aaff" rel="846"></path><path d="M315 364 L330 390 L345 364 Z" fill="#249AF3" rel="847"></path><path d="M345 364 L330 390 L360 390 Z" fill="#249AF3" rel="848"></path><path d="M435 364 L450 390 L465 364 Z" fill="#11AAFF" rel="855"></path><path d="M555 364 L540 390 L570 390 Z" fill="#249AF3" rel="862"></path><path d="M555 364 L570 390 L585 364 Z" fill="#249AF3" rel="863"></path><path d="M585 364 L570 390 L600 390 Z" fill="#11aaff" rel="864"></path><path d="M585 364 L600 390 L615 364 Z" fill="#11aaff" rel="865"></path><path d="M615 364 L600 390 L630 390 Z" fill="#249AF3" rel="866"></path><path d="M615 364 L630 390 L645 364 Z" fill="#249AF3" rel="867"></path><path d="M270 390 L285 416 L300 390 Z" fill="#249AF3" rel="903"></path><path d="M300 390 L285 416 L315 416 Z" fill="#249AF3" rel="904"></path><path d="M300 390 L315 416 L330 390 Z" fill="#11aaff" rel="905"></path><path d="M330 390 L315 416 L345 416 Z" fill="#11aaff" rel="906"></path><path d="M330 390 L345 416 L360 390 Z" fill="#249AF3" rel="907"></path><path d="M360 390 L345 416 L375 416 Z" fill="#249AF3" rel="908"></path><path d="M540 390 L525 416 L555 416 Z" fill="#249AF3" rel="920"></path><path d="M540 390 L555 416 L570 390 Z" fill="#249AF3" rel="921"></path><path d="M570 390 L555 416 L585 416 Z" fill="#11aaff" rel="922"></path><path d="M570 390 L585 416 L600 390 Z" fill="#11aaff" rel="923"></path><path d="M600 390 L585 416 L615 416 Z" fill="#249AF3" rel="924"></path><path d="M600 390 L615 416 L630 390 Z" fill="#249AF3" rel="925"></path><path d="M285 416 L300 442 L315 416 Z" fill="#249AF3" rel="963"></path><path d="M315 416 L300 442 L330 442 Z" fill="#249AF3" rel="964"></path><path d="M315 416 L330 442 L345 416 Z" fill="#11aaff" rel="965"></path><path d="M345 416 L330 442 L360 442 Z" fill="#11aaff" rel="966"></path><path d="M345 416 L360 442 L375 416 Z" fill="#249AF3" rel="967"></path><path d="M375 416 L360 442 L390 442 Z" fill="#249AF3" rel="968"></path><path d="M375 416 L390 442 L405 416 Z" fill="#249AF3" rel="969"></path><path d="M405 416 L390 442 L420 442 Z" fill="#249AF3" rel="970"></path><path d="M405 416 L420 442 L435 416 Z" fill="#249AF3" rel="971"></path><path d="M435 416 L420 442 L450 442 Z" fill="#249AF3" rel="972"></path><path d="M435 416 L450 442 L465 416 Z" fill="#249AF3" rel="973"></path><path d="M465 416 L450 442 L480 442 Z" fill="#249AF3" rel="974"></path><path d="M465 416 L480 442 L495 416 Z" fill="#249AF3" rel="975"></path><path d="M495 416 L480 442 L510 442 Z" fill="#249AF3" rel="976"></path><path d="M495 416 L510 442 L525 416 Z" fill="#249AF3" rel="977"></path><path d="M525 416 L510 442 L540 442 Z" fill="#249AF3" rel="978"></path><path d="M525 416 L540 442 L555 416 Z" fill="#249AF3" rel="979"></path><path d="M555 416 L540 442 L570 442 Z" fill="#11aaff" rel="980"></path><path d="M555 416 L570 442 L585 416 Z" fill="#11aaff" rel="981"></path><path d="M585 416 L570 442 L600 442 Z" fill="#249AF3" rel="982"></path><path d="M585 416 L600 442 L615 416 Z" fill="#249AF3" rel="983"></path><path d="M300 442 L315 468 L330 442 Z" fill="#249AF3" rel="1023"></path><path d="M330 442 L315 468 L345 468 Z" fill="#249AF3" rel="1024"></path><path d="M330 442 L345 468 L360 442 Z" fill="#11aaff" rel="1025"></path><path d="M360 442 L345 468 L375 468 Z" fill="#11aaff" rel="1026"></path><path d="M360 442 L375 468 L390 442 Z" fill="#11aaff" rel="1027"></path><path d="M390 442 L375 468 L405 468 Z" fill="#11aaff" rel="1028"></path><path d="M390 442 L405 468 L420 442 Z" fill="#11aaff" rel="1029"></path><path d="M420 442 L405 468 L435 468 Z" fill="#11aaff" rel="1030"></path><path d="M420 442 L435 468 L450 442 Z" fill="#11aaff" rel="1031"></path><path d="M450 442 L435 468 L465 468 Z" fill="#11aaff" rel="1032"></path><path d="M450 442 L465 468 L480 442 Z" fill="#11aaff" rel="1033"></path><path d="M480 442 L465 468 L495 468 Z" fill="#11aaff" rel="1034"></path><path d="M480 442 L495 468 L510 442 Z" fill="#11aaff" rel="1035"></path><path d="M510 442 L495 468 L525 468 Z" fill="#11aaff" rel="1036"></path><path d="M510 442 L525 468 L540 442 Z" fill="#11aaff" rel="1037"></path><path d="M540 442 L525 468 L555 468 Z" fill="#11aaff" rel="1038"></path><path d="M540 442 L555 468 L570 442 Z" fill="#11aaff" rel="1039"></path><path d="M570 442 L555 468 L585 468 Z" fill="#249AF3" rel="1040"></path><path d="M570 442 L585 468 L600 442 Z" fill="#249AF3" rel="1041"></path><path d="M315 468 L330 494 L345 468 Z" fill="#249AF3" rel="1083"></path><path d="M345 468 L330 494 L360 494 Z" fill="#249AF3" rel="1084"></path><path d="M345 468 L360 494 L375 468 Z" fill="#249AF3" rel="1085"></path><path d="M375 468 L360 494 L390 494 Z" fill="#249AF3" rel="1086"></path><path d="M375 468 L390 494 L405 468 Z" fill="#249AF3" rel="1087"></path><path d="M405 468 L390 494 L420 494 Z" fill="#249AF3" rel="1088"></path><path d="M405 468 L420 494 L435 468 Z" fill="#249AF3" rel="1089"></path><path d="M435 468 L420 494 L450 494 Z" fill="#249AF3" rel="1090"></path><path d="M435 468 L450 494 L465 468 Z" fill="#249AF3" rel="1091"></path><path d="M465 468 L450 494 L480 494 Z" fill="#249AF3" rel="1092"></path><path d="M465 468 L480 494 L495 468 Z" fill="#249AF3" rel="1093"></path><path d="M495 468 L480 494 L510 494 Z" fill="#249AF3" rel="1094"></path><path d="M495 468 L510 494 L525 468 Z" fill="#249AF3" rel="1095"></path><path d="M525 468 L510 494 L540 494 Z" fill="#249AF3" rel="1096"></path><path d="M525 468 L540 494 L555 468 Z" fill="#249AF3" rel="1097"></path><path d="M555 468 L540 494 L570 494 Z" fill="#249AF3" rel="1098"></path><path d="M555 468 L570 494 L585 468 Z" fill="#249AF3" rel="1099"></path></svg>