<?xml version="1.0" encoding="UTF-8" standalone="no"?>
<svg
   version="1.1"
   preserveAspectRatio="xMinYMin slice"
   width="900"
   height="520"
   viewBox="0 0 900 520"
   id="svg598"
   sodipodi:docname="ezgif-4-f86fc6b2c6.svg"
   xmlns:inkscape="http://www.inkscape.org/namespaces/inkscape"
   xmlns:sodipodi="http://sodipodi.sourceforge.net/DTD/sodipodi-0.dtd"
   xmlns="http://www.w3.org/2000/svg"
   xmlns:svg="http://www.w3.org/2000/svg">
  <defs
     id="defs602" />
  <sodipodi:namedview
     id="namedview600"
     pagecolor="#ffffff"
     bordercolor="#000000"
     borderopacity="0.25"
     inkscape:showpageshadow="2"
     inkscape:pageopacity="0.0"
     inkscape:pagecheckerboard="0"
     inkscape:deskcolor="#d1d1d1" />
  <!--{"isLandscape":true,"mapWidth":30,"mapHeight":20,"palette":[]}-->
  <path
     d="m 216,380 26,15 v -30 z"
     fill="#249af3"
     rel="80"
     id="path2" />
  <path
     d="m 216,380 26,-15 -26,-15 z"
     fill="#249af3"
     rel="81"
     id="path4" />
  <path
     d="m 216,350 26,15 v -30 z"
     fill="#249af3"
     rel="82"
     id="path6" />
  <path
     d="m 216,350 26,-15 -26,-15 z"
     fill="#249af3"
     rel="83"
     id="path8" />
  <path
     d="m 216,320 26,15 v -30 z"
     fill="#249af3"
     rel="84"
     id="path10" />
  <path
     d="m 216,320 26,-15 -26,-15 z"
     fill="#249af3"
     rel="85"
     id="path12" />
  <path
     d="m 216,290 26,15 v -30 z"
     fill="#249af3"
     rel="86"
     id="path14" />
  <path
     d="m 216,290 26,-15 -26,-15 z"
     fill="#249af3"
     rel="87"
     id="path16" />
  <path
     d="m 216,260 26,15 v -30 z"
     fill="#249af3"
     rel="88"
     id="path18" />
  <path
     d="m 216,260 26,-15 -26,-15 z"
     fill="#249af3"
     rel="89"
     id="path20" />
  <path
     d="m 216,230 26,15 v -30 z"
     fill="#249af3"
     rel="90"
     id="path22" />
  <path
     d="m 216,230 26,-15 -26,-15 z"
     fill="#249af3"
     rel="91"
     id="path24" />
  <path
     d="m 216,200 26,15 v -30 z"
     fill="#249af3"
     rel="92"
     id="path26" />
  <path
     d="m 216,200 26,-15 -26,-15 z"
     fill="#249af3"
     rel="93"
     id="path28" />
  <path
     d="m 216,170 26,15 v -30 z"
     fill="#249af3"
     rel="94"
     id="path30" />
  <path
     d="m 216,170 26,-15 -26,-15 z"
     fill="#249af3"
     rel="95"
     id="path32" />
  <path
     d="m 216,140 26,15 v -30 z"
     fill="#249af3"
     rel="96"
     id="path34" />
  <path
     d="m 242,395 26,15 v -30 z"
     fill="#249af3"
     rel="138"
     id="path36" />
  <path
     d="m 242,395 26,-15 -26,-15 z"
     fill="#249af3"
     rel="139"
     id="path38" />
  <path
     d="m 242,365 26,15 v -30 z"
     fill="#11aaff"
     rel="140"
     id="path40" />
  <path
     d="m 242,365 26,-15 -26,-15 z"
     fill="#11aaff"
     rel="141"
     id="path42" />
  <path
     d="m 242,335 26,15 v -30 z"
     fill="#11aaff"
     rel="142"
     id="path44" />
  <path
     d="m 242,335 26,-15 -26,-15 z"
     fill="#11aaff"
     rel="143"
     id="path46" />
  <path
     d="m 242,305 26,15 v -30 z"
     fill="#11aaff"
     rel="144"
     id="path48" />
  <path
     d="m 242,305 26,-15 -26,-15 z"
     fill="#11aaff"
     rel="145"
     id="path50" />
  <path
     d="m 242,275 26,15 v -30 z"
     fill="#11aaff"
     rel="146"
     id="path52" />
  <path
     d="m 242,275 26,-15 -26,-15 z"
     fill="#11aaff"
     rel="147"
     id="path54" />
  <path
     d="m 242,245 26,15 v -30 z"
     fill="#11aaff"
     rel="148"
     id="path56" />
  <path
     d="m 242,245 26,-15 -26,-15 z"
     fill="#11aaff"
     rel="149"
     id="path58" />
  <path
     d="m 242,215 26,15 v -30 z"
     fill="#11aaff"
     rel="150"
     id="path60" />
  <path
     d="m 242,215 26,-15 -26,-15 z"
     fill="#11aaff"
     rel="151"
     id="path62" />
  <path
     d="m 242,185 26,15 v -30 z"
     fill="#11aaff"
     rel="152"
     id="path64" />
  <path
     d="m 242,185 26,-15 -26,-15 z"
     fill="#11aaff"
     rel="153"
     id="path66" />
  <path
     d="m 242,155 26,15 v -30 z"
     fill="#11aaff"
     rel="154"
     id="path68" />
  <path
     d="m 242,155 26,-15 -26,-15 z"
     fill="#249af3"
     rel="155"
     id="path70" />
  <path
     d="m 242,125 26,15 v -30 z"
     fill="#249af3"
     rel="156"
     id="path72" />
  <path
     d="m 268,410 26,15 v -30 z"
     fill="#249af3"
     rel="196"
     id="path74" />
  <path
     d="m 268,410 26,-15 -26,-15 z"
     fill="#249af3"
     rel="197"
     id="path76" />
  <path
     d="m 268,380 26,15 v -30 z"
     fill="#11aaff"
     rel="198"
     id="path78" />
  <path
     d="m 268,380 26,-15 -26,-15 z"
     fill="#11aaff"
     rel="199"
     id="path80" />
  <path
     d="m 268,350 26,15 v -30 z"
     fill="#249af3"
     rel="200"
     id="path82" />
  <path
     d="m 268,350 26,-15 -26,-15 z"
     fill="#249af3"
     rel="201"
     id="path84" />
  <path
     d="m 268,320 26,15 v -30 z"
     fill="#249af3"
     rel="202"
     id="path86" />
  <path
     d="m 268,320 26,-15 -26,-15 z"
     fill="#249af3"
     rel="203"
     id="path88" />
  <path
     d="m 268,290 26,15 v -30 z"
     fill="#249af3"
     rel="204"
     id="path90" />
  <path
     d="m 268,290 26,-15 -26,-15 z"
     fill="#249af3"
     rel="205"
     id="path92" />
  <path
     d="m 268,260 26,15 v -30 z"
     fill="#249af3"
     rel="206"
     id="path94" />
  <path
     d="m 268,260 26,-15 -26,-15 z"
     fill="#249af3"
     rel="207"
     id="path96" />
  <path
     d="m 268,230 26,15 v -30 z"
     fill="#249af3"
     rel="208"
     id="path98" />
  <path
     d="m 268,230 26,-15 -26,-15 z"
     fill="#249af3"
     rel="209"
     id="path100" />
  <path
     d="m 268,200 26,15 v -30 z"
     fill="#249af3"
     rel="210"
     id="path102" />
  <path
     d="m 268,200 26,-15 -26,-15 z"
     fill="#249af3"
     rel="211"
     id="path104" />
  <path
     d="m 268,170 26,15 v -30 z"
     fill="#249af3"
     rel="212"
     id="path106" />
  <path
     d="m 268,170 26,-15 -26,-15 z"
     fill="#11aaff"
     rel="213"
     id="path108" />
  <path
     d="m 268,140 26,15 v -30 z"
     fill="#11aaff"
     rel="214"
     id="path110" />
  <path
     d="m 268,140 26,-15 -26,-15 z"
     fill="#249af3"
     rel="215"
     id="path112" />
  <path
     d="m 268,110 26,15 V 95 Z"
     fill="#249af3"
     rel="216"
     id="path114" />
  <path
     d="m 294,425 26,15 v -30 z"
     fill="#249af3"
     rel="254"
     id="path116" />
  <path
     d="m 294,425 26,-15 -26,-15 z"
     fill="#249af3"
     rel="255"
     id="path118" />
  <path
     d="m 294,395 26,15 v -30 z"
     fill="#11aaff"
     rel="256"
     id="path120" />
  <path
     d="m 294,395 26,-15 -26,-15 z"
     fill="#11aaff"
     rel="257"
     id="path122" />
  <path
     d="m 294,365 26,15 v -30 z"
     fill="#249af3"
     rel="258"
     id="path124" />
  <path
     d="m 294,365 26,-15 -26,-15 z"
     fill="#249af3"
     rel="259"
     id="path126" />
  <path
     d="m 294,185 26,-15 -26,-15 z"
     fill="#249af3"
     rel="271"
     id="path128" />
  <path
     d="m 294,155 26,15 v -30 z"
     fill="#249af3"
     rel="272"
     id="path130" />
  <path
     d="m 294,155 26,-15 -26,-15 z"
     fill="#11aaff"
     rel="273"
     id="path132" />
  <path
     d="m 294,125 26,15 v -30 z"
     fill="#11aaff"
     rel="274"
     id="path134" />
  <path
     d="M 294,125 320,110 294,95 Z"
     fill="#249af3"
     rel="275"
     id="path136" />
  <path
     d="m 294,95 26,15 V 80 Z"
     fill="#249af3"
     rel="276"
     id="path138" />
  <path
     d="m 320,440 26,15 v -30 z"
     fill="#249af3"
     rel="312"
     id="path140" />
  <path
     d="m 320,440 26,-15 -26,-15 z"
     fill="#249af3"
     rel="313"
     id="path142" />
  <path
     d="m 320,410 26,15 v -30 z"
     fill="#11aaff"
     rel="314"
     id="path144" />
  <path
     d="m 320,410 26,-15 -26,-15 z"
     fill="#11aaff"
     rel="315"
     id="path146" />
  <path
     d="m 320,380 26,15 v -30 z"
     fill="#249af3"
     rel="316"
     id="path148" />
  <path
     d="m 320,380 26,-15 -26,-15 z"
     fill="#249af3"
     rel="317"
     id="path150" />
  <path
     d="m 320,290 26,15 v -30 z"
     fill="#249af3"
     rel="322"
     id="path152" />
  <path
     d="m 320,290 26,-15 -26,-15 z"
     fill="#249af3"
     rel="323"
     id="path154" />
  <path
     d="m 320,260 26,15 v -30 z"
     fill="#249af3"
     rel="324"
     id="path156" />
  <path
     d="m 320,260 26,-15 -26,-15 z"
     fill="#249af3"
     rel="325"
     id="path158" />
  <path
     d="m 320,230 26,15 v -30 z"
     fill="#249af3"
     rel="326"
     id="path160" />
  <path
     d="m 320,170 26,-15 -26,-15 z"
     fill="#249af3"
     rel="331"
     id="path162" />
  <path
     d="m 320,140 26,15 v -30 z"
     fill="#249af3"
     rel="332"
     id="path164" />
  <path
     d="m 320,140 26,-15 -26,-15 z"
     fill="#11aaff"
     rel="333"
     id="path166" />
  <path
     d="m 320,110 26,15 V 95 Z"
     fill="#11aaff"
     rel="334"
     id="path168" />
  <path
     d="M 320,110 346,95 320,80 Z"
     fill="#249af3"
     rel="335"
     id="path170" />
  <path
     d="m 320,80 26,15 V 65 Z"
     fill="#249af3"
     rel="336"
     id="path172" />
  <path
     d="m 346,455 26,15 v -30 z"
     fill="#249af3"
     rel="370"
     id="path174" />
  <path
     d="m 346,455 26,-15 -26,-15 z"
     fill="#249af3"
     rel="371"
     id="path176" />
  <path
     d="m 346,425 26,15 v -30 z"
     fill="#11aaff"
     rel="372"
     id="path178" />
  <path
     d="m 346,425 26,-15 -26,-15 z"
     fill="#11aaff"
     rel="373"
     id="path180" />
  <path
     d="m 346,395 26,15 v -30 z"
     fill="#249af3"
     rel="374"
     id="path182" />
  <path
     d="m 346,395 26,-15 -26,-15 z"
     fill="#249af3"
     rel="375"
     id="path184" />
  <path
     d="m 346,305 26,15 v -30 z"
     fill="#249af3"
     rel="380"
     id="path186" />
  <path
     d="m 346,305 26,-15 -26,-15 z"
     fill="#249af3"
     rel="381"
     id="path188" />
  <path
     d="m 346,275 26,15 v -30 z"
     fill="#249af3"
     rel="382"
     id="path190" />
  <path
     d="m 346,275 26,-15 -26,-15 z"
     fill="#249af3"
     rel="383"
     id="path192" />
  <path
     d="m 346,245 26,15 v -30 z"
     fill="#249af3"
     rel="384"
     id="path194" />
  <path
     d="m 346,245 26,-15 -26,-15 z"
     fill="#249af3"
     rel="385"
     id="path196" />
  <path
     d="m 346,215 26,15 v -30 z"
     fill="#249af3"
     rel="386"
     id="path198" />
  <path
     d="m 346,155 26,-15 -26,-15 z"
     fill="#249af3"
     rel="391"
     id="path200" />
  <path
     d="m 346,125 26,15 v -30 z"
     fill="#249af3"
     rel="392"
     id="path202" />
  <path
     d="M 346,125 372,110 346,95 Z"
     fill="#11aaff"
     rel="393"
     id="path204" />
  <path
     d="m 346,95 26,15 V 80 Z"
     fill="#11aaff"
     rel="394"
     id="path206" />
  <path
     d="M 346,95 372,80 346,65 Z"
     fill="#249af3"
     rel="395"
     id="path208" />
  <path
     d="m 346,65 26,15 V 50 Z"
     fill="#249af3"
     rel="396"
     id="path210" />
  <path
     d="m 372,470 26,15 v -30 z"
     fill="#249af3"
     rel="428"
     id="path212" />
  <path
     d="m 372,470 26,-15 -26,-15 z"
     fill="#249af3"
     rel="429"
     id="path214" />
  <path
     d="m 372,440 26,15 v -30 z"
     fill="#11aaff"
     rel="430"
     id="path216" />
  <path
     d="m 372,440 26,-15 -26,-15 z"
     fill="#11aaff"
     rel="431"
     id="path218" />
  <path
     d="m 372,410 26,15 v -30 z"
     fill="#249af3"
     rel="432"
     id="path220" />
  <path
     d="m 372,410 26,-15 -26,-15 z"
     fill="#249af3"
     rel="433"
     id="path222" />
  <path
     d="m 372,320 26,-15 -26,-15 z"
     fill="#249af3"
     rel="439"
     id="path224" />
  <path
     d="m 372,290 26,15 v -30 z"
     fill="#249af3"
     rel="440"
     id="path226" />
  <path
     d="m 372,290 26,-15 -26,-15 z"
     fill="#249af3"
     rel="441"
     id="path228" />
  <path
     d="m 372,260 26,15 v -30 z"
     fill="#249af3"
     rel="442"
     id="path230" />
  <path
     d="m 372,260 26,-15 -26,-15 z"
     fill="#249af3"
     rel="443"
     id="path232" />
  <path
     d="m 372,230 26,15 v -30 z"
     fill="#249af3"
     rel="444"
     id="path234" />
  <path
     d="m 372,230 26,-15 -26,-15 z"
     fill="#249af3"
     rel="445"
     id="path236" />
  <path
     d="m 372,140 26,-15 -26,-15 z"
     fill="#249af3"
     rel="451"
     id="path238" />
  <path
     d="m 372,110 26,15 V 95 Z"
     fill="#249af3"
     rel="452"
     id="path240" />
  <path
     d="M 372,110 398,95 372,80 Z"
     fill="#11aaff"
     rel="453"
     id="path242" />
  <path
     d="m 372,80 26,15 V 65 Z"
     fill="#11aaff"
     rel="454"
     id="path244" />
  <path
     d="M 372,80 398,65 372,50 Z"
     fill="#249af3"
     rel="455"
     id="path246" />
  <path
     d="m 372,50 26,15 V 35 Z"
     fill="#249af3"
     rel="456"
     id="path248" />
  <path
     d="m 398,485 26,15 v -30 z"
     fill="#249af3"
     rel="486"
     id="path250" />
  <path
     d="m 398,485 26,-15 -26,-15 z"
     fill="#249af3"
     rel="487"
     id="path252" />
  <path
     d="m 398,455 26,15 v -30 z"
     fill="#11aaff"
     rel="488"
     id="path254" />
  <path
     d="m 398,455 26,-15 -26,-15 z"
     fill="#11aaff"
     rel="489"
     id="path256" />
  <path
     d="m 398,425 26,15 v -30 z"
     fill="#249af3"
     rel="490"
     id="path258" />
  <path
     d="m 398,425 26,-15 -26,-15 z"
     fill="#249af3"
     rel="491"
     id="path260" />
  <path
     d="m 398,305 26,-15 -26,-15 z"
     fill="#249af3"
     rel="499"
     id="path262" />
  <path
     d="m 398,275 26,15 v -30 z"
     fill="#11aaff"
     rel="500"
     id="path264" />
  <path
     d="m 398,275 26,-15 -26,-15 z"
     fill="#11aaff"
     rel="501"
     id="path266" />
  <path
     d="m 398,245 26,15 v -30 z"
     fill="#11aaff"
     rel="502"
     id="path268" />
  <path
     d="m 398,245 26,-15 -26,-15 z"
     fill="#249af3"
     rel="503"
     id="path270" />
  <path
     d="M 398,125 424,110 398,95 Z"
     fill="#249af3"
     rel="511"
     id="path272" />
  <path
     d="m 398,95 26,15 V 80 Z"
     fill="#249af3"
     rel="512"
     id="path274" />
  <path
     d="M 398,95 424,80 398,65 Z"
     fill="#11aaff"
     rel="513"
     id="path276" />
  <path
     d="m 398,65 26,15 V 50 Z"
     fill="#11aaff"
     rel="514"
     id="path278" />
  <path
     d="M 398,65 424,50 398,35 Z"
     fill="#249af3"
     rel="515"
     id="path280" />
  <path
     d="m 398,35 26,15 V 20 Z"
     fill="#249af3"
     rel="516"
     id="path282" />
  <path
     d="m 424,500 26,15 v -30 z"
     fill="#249af3"
     rel="544"
     id="path284" />
  <path
     d="m 424,500 26,-15 -26,-15 z"
     fill="#249af3"
     rel="545"
     id="path286" />
  <path
     d="m 424,470 26,15 v -30 z"
     fill="#11aaff"
     rel="546"
     id="path288" />
  <path
     d="m 424,470 26,-15 -26,-15 z"
     fill="#11aaff"
     rel="547"
     id="path290" />
  <path
     d="m 424,440 26,15 v -30 z"
     fill="#249af3"
     rel="548"
     id="path292" />
  <path
     d="m 424,440 26,-15 -26,-15 z"
     fill="#249af3"
     rel="549"
     id="path294" />
  <path
     d="m 424,290 26,-15 -26,-15 z"
     fill="#11aaff"
     rel="559"
     id="path296" />
  <path
     d="m 424,260 26,15 v -30 z"
     fill="#11aaff"
     rel="560"
     id="path298" />
  <path
     d="m 424,260 26,-15 -26,-15 z"
     fill="#11aaff"
     rel="561"
     id="path300" />
  <path
     d="M 424,110 450,95 424,80 Z"
     fill="#249af3"
     rel="571"
     id="path302" />
  <path
     d="m 424,80 26,15 V 65 Z"
     fill="#249af3"
     rel="572"
     id="path304" />
  <path
     d="M 424,80 450,65 424,50 Z"
     fill="#11aaff"
     rel="573"
     id="path306" />
  <path
     d="m 424,50 26,15 V 35 Z"
     fill="#11aaff"
     rel="574"
     id="path308" />
  <path
     d="M 424,50 450,35 424,20 Z"
     fill="#249af3"
     rel="575"
     id="path310" />
  <path
     d="m 424,20 26,15 V 5 Z"
     fill="#249af3"
     rel="576"
     id="path312" />
  <path
     d="m 450,515 26,-15 -26,-15 z"
     fill="#249af3"
     rel="603"
     id="path314" />
  <path
     d="m 450,485 26,15 v -30 z"
     fill="#249af3"
     rel="604"
     id="path316" />
  <path
     d="m 450,485 26,-15 -26,-15 z"
     fill="#11aaff"
     rel="605"
     id="path318" />
  <path
     d="m 450,455 26,15 v -30 z"
     fill="#11aaff"
     rel="606"
     id="path320" />
  <path
     d="m 450,455 26,-15 -26,-15 z"
     fill="#249af3"
     rel="607"
     id="path322" />
  <path
     d="m 450,425 26,15 v -30 z"
     fill="#249af3"
     rel="608"
     id="path324" />
  <path
     d="m 450,275 26,15 v -30 z"
     fill="#11aaff"
     rel="618"
     id="path326" />
  <path
     d="m 450,275 26,-15 -26,-15 z"
     fill="#11aaff"
     rel="619"
     id="path328" />
  <path
     d="m 450,245 26,15 v -30 z"
     fill="#11aaff"
     rel="620"
     id="path330" />
  <path
     d="m 450,95 26,15 V 80 Z"
     fill="#249af3"
     rel="630"
     id="path332" />
  <path
     d="M 450,95 476,80 450,65 Z"
     fill="#249af3"
     rel="631"
     id="path334" />
  <path
     d="m 450,65 26,15 V 50 Z"
     fill="#11aaff"
     rel="632"
     id="path336" />
  <path
     d="M 450,65 476,50 450,35 Z"
     fill="#11aaff"
     rel="633"
     id="path338" />
  <path
     d="m 450,35 26,15 V 20 Z"
     fill="#249af3"
     rel="634"
     id="path340" />
  <path
     d="M 450,35 476,20 450,5 Z"
     fill="#249af3"
     rel="635"
     id="path342" />
  <path
     d="m 476,500 26,-15 -26,-15 z"
     fill="#249af3"
     rel="663"
     id="path344" />
  <path
     d="m 476,470 26,15 v -30 z"
     fill="#249af3"
     rel="664"
     id="path346" />
  <path
     d="m 476,470 26,-15 -26,-15 z"
     fill="#11aaff"
     rel="665"
     id="path348" />
  <path
     d="m 476,440 26,15 v -30 z"
     fill="#11aaff"
     rel="666"
     id="path350" />
  <path
     d="m 476,440 26,-15 -26,-15 z"
     fill="#249af3"
     rel="667"
     id="path352" />
  <path
     d="m 476,410 26,15 v -30 z"
     fill="#249af3"
     rel="668"
     id="path354" />
  <path
     d="m 476,290 26,-15 -26,-15 z"
     fill="#11aaff"
     rel="677"
     id="path356" />
  <path
     d="m 476,260 26,15 v -30 z"
     fill="#11aaff"
     rel="678"
     id="path358" />
  <path
     d="m 476,260 26,-15 -26,-15 z"
     fill="#11aaff"
     rel="679"
     id="path360" />
  <path
     d="m 476,110 26,15 V 95 Z"
     fill="#249af3"
     rel="688"
     id="path362" />
  <path
     d="M 476,110 502,95 476,80 Z"
     fill="#249af3"
     rel="689"
     id="path364" />
  <path
     d="m 476,80 26,15 V 65 Z"
     fill="#11aaff"
     rel="690"
     id="path366" />
  <path
     d="M 476,80 502,65 476,50 Z"
     fill="#11aaff"
     rel="691"
     id="path368" />
  <path
     d="m 476,50 26,15 V 35 Z"
     fill="#249af3"
     rel="692"
     id="path370" />
  <path
     d="M 476,50 502,35 476,20 Z"
     fill="#249af3"
     rel="693"
     id="path372" />
  <path
     d="m 502,485 26,-15 -26,-15 z"
     fill="#249af3"
     rel="723"
     id="path374" />
  <path
     d="m 502,455 26,15 v -30 z"
     fill="#249af3"
     rel="724"
     id="path376" />
  <path
     d="m 502,455 26,-15 -26,-15 z"
     fill="#11aaff"
     rel="725"
     id="path378" />
  <path
     d="m 502,425 26,15 v -30 z"
     fill="#11aaff"
     rel="726"
     id="path380" />
  <path
     d="m 502,425 26,-15 -26,-15 z"
     fill="#249af3"
     rel="727"
     id="path382" />
  <path
     d="m 502,395 26,15 v -30 z"
     fill="#249af3"
     rel="728"
     id="path384" />
  <path
     d="m 502,275 26,15 v -30 z"
     fill="#11aaff"
     rel="736"
     id="path386" />
  <path
     d="m 502,275 26,-15 -26,-15 z"
     fill="#11aaff"
     rel="737"
     id="path388" />
  <path
     d="m 502,245 26,15 v -30 z"
     fill="#11aaff"
     rel="738"
     id="path390" />
  <path
     d="m 502,125 26,15 v -30 z"
     fill="#249af3"
     rel="746"
     id="path392" />
  <path
     d="M 502,125 528,110 502,95 Z"
     fill="#249af3"
     rel="747"
     id="path394" />
  <path
     d="m 502,95 26,15 V 80 Z"
     fill="#11aaff"
     rel="748"
     id="path396" />
  <path
     d="M 502,95 528,80 502,65 Z"
     fill="#11aaff"
     rel="749"
     id="path398" />
  <path
     d="m 502,65 26,15 V 50 Z"
     fill="#249af3"
     rel="750"
     id="path400" />
  <path
     d="M 502,65 528,50 502,35 Z"
     fill="#249af3"
     rel="751"
     id="path402" />
  <path
     d="m 528,470 26,-15 -26,-15 z"
     fill="#249af3"
     rel="783"
     id="path404" />
  <path
     d="m 528,440 26,15 v -30 z"
     fill="#249af3"
     rel="784"
     id="path406" />
  <path
     d="m 528,440 26,-15 -26,-15 z"
     fill="#11aaff"
     rel="785"
     id="path408" />
  <path
     d="m 528,410 26,15 v -30 z"
     fill="#11aaff"
     rel="786"
     id="path410" />
  <path
     d="m 528,410 26,-15 -26,-15 z"
     fill="#249af3"
     rel="787"
     id="path412" />
  <path
     d="m 528,380 26,15 v -30 z"
     fill="#249af3"
     rel="788"
     id="path414" />
  <path
     d="m 528,290 26,-15 -26,-15 z"
     fill="#11aaff"
     rel="795"
     id="path416" />
  <path
     d="m 528,260 26,15 v -30 z"
     fill="#11aaff"
     rel="796"
     id="path418" />
  <path
     d="m 528,260 26,-15 -26,-15 z"
     fill="#11aaff"
     rel="797"
     id="path420" />
  <path
     d="m 528,140 26,15 v -30 z"
     fill="#249af3"
     rel="804"
     id="path422" />
  <path
     d="m 528,140 26,-15 -26,-15 z"
     fill="#249af3"
     rel="805"
     id="path424" />
  <path
     d="m 528,110 26,15 V 95 Z"
     fill="#11aaff"
     rel="806"
     id="path426" />
  <path
     d="M 528,110 554,95 528,80 Z"
     fill="#11aaff"
     rel="807"
     id="path428" />
  <path
     d="m 528,80 26,15 V 65 Z"
     fill="#249af3"
     rel="808"
     id="path430" />
  <path
     d="M 528,80 554,65 528,50 Z"
     fill="#249af3"
     rel="809"
     id="path432" />
  <path
     d="m 554,455 26,-15 -26,-15 z"
     fill="#249af3"
     rel="843"
     id="path434" />
  <path
     d="m 554,425 26,15 v -30 z"
     fill="#249af3"
     rel="844"
     id="path436" />
  <path
     d="m 554,425 26,-15 -26,-15 z"
     fill="#11aaff"
     rel="845"
     id="path438" />
  <path
     d="m 554,395 26,15 v -30 z"
     fill="#11aaff"
     rel="846"
     id="path440" />
  <path
     d="m 554,395 26,-15 -26,-15 z"
     fill="#249af3"
     rel="847"
     id="path442" />
  <path
     d="m 554,365 26,15 v -30 z"
     fill="#249af3"
     rel="848"
     id="path444" />
  <path
     d="m 554,275 26,-15 -26,-15 z"
     fill="#11aaff"
     rel="855"
     id="path446" />
  <path
     d="m 554,155 26,15 v -30 z"
     fill="#249af3"
     rel="862"
     id="path448" />
  <path
     d="m 554,155 26,-15 -26,-15 z"
     fill="#249af3"
     rel="863"
     id="path450" />
  <path
     d="m 554,125 26,15 v -30 z"
     fill="#11aaff"
     rel="864"
     id="path452" />
  <path
     d="M 554,125 580,110 554,95 Z"
     fill="#11aaff"
     rel="865"
     id="path454" />
  <path
     d="m 554,95 26,15 V 80 Z"
     fill="#249af3"
     rel="866"
     id="path456" />
  <path
     d="M 554,95 580,80 554,65 Z"
     fill="#249af3"
     rel="867"
     id="path458" />
  <path
     d="m 580,440 26,-15 -26,-15 z"
     fill="#249af3"
     rel="903"
     id="path460" />
  <path
     d="m 580,410 26,15 v -30 z"
     fill="#249af3"
     rel="904"
     id="path462" />
  <path
     d="m 580,410 26,-15 -26,-15 z"
     fill="#11aaff"
     rel="905"
     id="path464" />
  <path
     d="m 580,380 26,15 v -30 z"
     fill="#11aaff"
     rel="906"
     id="path466" />
  <path
     d="m 580,380 26,-15 -26,-15 z"
     fill="#249af3"
     rel="907"
     id="path468" />
  <path
     d="m 580,350 26,15 v -30 z"
     fill="#249af3"
     rel="908"
     id="path470" />
  <path
     d="m 580,170 26,15 v -30 z"
     fill="#249af3"
     rel="920"
     id="path472" />
  <path
     d="m 580,170 26,-15 -26,-15 z"
     fill="#249af3"
     rel="921"
     id="path474" />
  <path
     d="m 580,140 26,15 v -30 z"
     fill="#11aaff"
     rel="922"
     id="path476" />
  <path
     d="m 580,140 26,-15 -26,-15 z"
     fill="#11aaff"
     rel="923"
     id="path478" />
  <path
     d="m 580,110 26,15 V 95 Z"
     fill="#249af3"
     rel="924"
     id="path480" />
  <path
     d="M 580,110 606,95 580,80 Z"
     fill="#249af3"
     rel="925"
     id="path482" />
  <path
     d="m 606,425 26,-15 -26,-15 z"
     fill="#249af3"
     rel="963"
     id="path484" />
  <path
     d="m 606,395 26,15 v -30 z"
     fill="#249af3"
     rel="964"
     id="path486" />
  <path
     d="m 606,395 26,-15 -26,-15 z"
     fill="#11aaff"
     rel="965"
     id="path488" />
  <path
     d="m 606,365 26,15 v -30 z"
     fill="#11aaff"
     rel="966"
     id="path490" />
  <path
     d="m 606,365 26,-15 -26,-15 z"
     fill="#249af3"
     rel="967"
     id="path492" />
  <path
     d="m 606,335 26,15 v -30 z"
     fill="#249af3"
     rel="968"
     id="path494" />
  <path
     d="m 606,335 26,-15 -26,-15 z"
     fill="#249af3"
     rel="969"
     id="path496" />
  <path
     d="m 606,305 26,15 v -30 z"
     fill="#249af3"
     rel="970"
     id="path498" />
  <path
     d="m 606,305 26,-15 -26,-15 z"
     fill="#249af3"
     rel="971"
     id="path500" />
  <path
     d="m 606,275 26,15 v -30 z"
     fill="#249af3"
     rel="972"
     id="path502" />
  <path
     d="m 606,275 26,-15 -26,-15 z"
     fill="#249af3"
     rel="973"
     id="path504" />
  <path
     d="m 606,245 26,15 v -30 z"
     fill="#249af3"
     rel="974"
     id="path506" />
  <path
     d="m 606,245 26,-15 -26,-15 z"
     fill="#249af3"
     rel="975"
     id="path508" />
  <path
     d="m 606,215 26,15 v -30 z"
     fill="#249af3"
     rel="976"
     id="path510" />
  <path
     d="m 606,215 26,-15 -26,-15 z"
     fill="#249af3"
     rel="977"
     id="path512" />
  <path
     d="m 606,185 26,15 v -30 z"
     fill="#249af3"
     rel="978"
     id="path514" />
  <path
     d="m 606,185 26,-15 -26,-15 z"
     fill="#249af3"
     rel="979"
     id="path516" />
  <path
     d="m 606,155 26,15 v -30 z"
     fill="#11aaff"
     rel="980"
     id="path518" />
  <path
     d="m 606,155 26,-15 -26,-15 z"
     fill="#11aaff"
     rel="981"
     id="path520" />
  <path
     d="m 606,125 26,15 v -30 z"
     fill="#249af3"
     rel="982"
     id="path522" />
  <path
     d="M 606,125 632,110 606,95 Z"
     fill="#249af3"
     rel="983"
     id="path524" />
  <path
     d="m 632,410 26,-15 -26,-15 z"
     fill="#249af3"
     rel="1023"
     id="path526" />
  <path
     d="m 632,380 26,15 v -30 z"
     fill="#249af3"
     rel="1024"
     id="path528" />
  <path
     d="m 632,380 26,-15 -26,-15 z"
     fill="#11aaff"
     rel="1025"
     id="path530" />
  <path
     d="m 632,350 26,15 v -30 z"
     fill="#11aaff"
     rel="1026"
     id="path532" />
  <path
     d="m 632,350 26,-15 -26,-15 z"
     fill="#11aaff"
     rel="1027"
     id="path534" />
  <path
     d="m 632,320 26,15 v -30 z"
     fill="#11aaff"
     rel="1028"
     id="path536" />
  <path
     d="m 632,320 26,-15 -26,-15 z"
     fill="#11aaff"
     rel="1029"
     id="path538" />
  <path
     d="m 632,290 26,15 v -30 z"
     fill="#11aaff"
     rel="1030"
     id="path540" />
  <path
     d="m 632,290 26,-15 -26,-15 z"
     fill="#11aaff"
     rel="1031"
     id="path542" />
  <path
     d="m 632,260 26,15 v -30 z"
     fill="#11aaff"
     rel="1032"
     id="path544" />
  <path
     d="m 632,260 26,-15 -26,-15 z"
     fill="#11aaff"
     rel="1033"
     id="path546" />
  <path
     d="m 632,230 26,15 v -30 z"
     fill="#11aaff"
     rel="1034"
     id="path548" />
  <path
     d="m 632,230 26,-15 -26,-15 z"
     fill="#11aaff"
     rel="1035"
     id="path550" />
  <path
     d="m 632,200 26,15 v -30 z"
     fill="#11aaff"
     rel="1036"
     id="path552" />
  <path
     d="m 632,200 26,-15 -26,-15 z"
     fill="#11aaff"
     rel="1037"
     id="path554" />
  <path
     d="m 632,170 26,15 v -30 z"
     fill="#11aaff"
     rel="1038"
     id="path556" />
  <path
     d="m 632,170 26,-15 -26,-15 z"
     fill="#11aaff"
     rel="1039"
     id="path558" />
  <path
     d="m 632,140 26,15 v -30 z"
     fill="#249af3"
     rel="1040"
     id="path560" />
  <path
     d="m 632,140 26,-15 -26,-15 z"
     fill="#249af3"
     rel="1041"
     id="path562" />
  <path
     d="m 658,395 26,-15 -26,-15 z"
     fill="#249af3"
     rel="1083"
     id="path564" />
  <path
     d="m 658,365 26,15 v -30 z"
     fill="#249af3"
     rel="1084"
     id="path566" />
  <path
     d="m 658,365 26,-15 -26,-15 z"
     fill="#249af3"
     rel="1085"
     id="path568" />
  <path
     d="m 658,335 26,15 v -30 z"
     fill="#249af3"
     rel="1086"
     id="path570" />
  <path
     d="m 658,335 26,-15 -26,-15 z"
     fill="#249af3"
     rel="1087"
     id="path572" />
  <path
     d="m 658,305 26,15 v -30 z"
     fill="#249af3"
     rel="1088"
     id="path574" />
  <path
     d="m 658,305 26,-15 -26,-15 z"
     fill="#249af3"
     rel="1089"
     id="path576" />
  <path
     d="m 658,275 26,15 v -30 z"
     fill="#249af3"
     rel="1090"
     id="path578" />
  <path
     d="m 658,275 26,-15 -26,-15 z"
     fill="#249af3"
     rel="1091"
     id="path580" />
  <path
     d="m 658,245 26,15 v -30 z"
     fill="#249af3"
     rel="1092"
     id="path582" />
  <path
     d="m 658,245 26,-15 -26,-15 z"
     fill="#249af3"
     rel="1093"
     id="path584" />
  <path
     d="m 658,215 26,15 v -30 z"
     fill="#249af3"
     rel="1094"
     id="path586" />
  <path
     d="m 658,215 26,-15 -26,-15 z"
     fill="#249af3"
     rel="1095"
     id="path588" />
  <path
     d="m 658,185 26,15 v -30 z"
     fill="#249af3"
     rel="1096"
     id="path590" />
  <path
     d="m 658,185 26,-15 -26,-15 z"
     fill="#249af3"
     rel="1097"
     id="path592" />
  <path
     d="m 658,155 26,15 v -30 z"
     fill="#249af3"
     rel="1098"
     id="path594" />
  <path
     d="m 658,155 26,-15 -26,-15 z"
     fill="#249af3"
     rel="1099"
     id="path596" />
</svg>
